<svg width="49" height="49" viewBox="0 0 49 49" fill="none" xmlns="http://www.w3.org/2000/svg">
<path d="M38.7913 24.5002C38.7913 25.0416 38.5762 25.561 38.1934 25.9438C37.8105 26.3267 37.2912 26.5418 36.7497 26.5418C36.2082 26.5418 35.6889 26.3267 35.306 25.9438C34.9231 25.561 34.708 25.0416 34.708 24.5002C34.708 23.9587 34.9231 23.4394 35.306 23.0565C35.6889 22.6736 36.2082 22.4585 36.7497 22.4585C37.2912 22.4585 37.8105 22.6736 38.1934 23.0565C38.5762 23.4394 38.7913 23.9587 38.7913 24.5002Z" fill="#699BF7"/>
<path fill-rule="evenodd" clip-rule="evenodd" d="M20.302 6.63525H26.6557C30.4083 6.63525 33.3809 6.63525 35.7064 6.94763C38.0992 7.27021 40.0368 7.94805 41.566 9.47521C43.4525 11.3638 44.0548 13.8913 44.2732 17.1723C45.4513 17.6888 46.3414 18.7852 46.4374 20.1735C46.4476 20.2981 46.4476 20.4308 46.4476 20.5533V28.4464C46.4476 28.5689 46.4476 28.7016 46.4394 28.8241C46.3414 30.2124 45.4513 31.3108 44.2732 31.8294C44.0548 35.1083 43.4525 37.6359 41.566 39.5245C40.0368 41.0516 38.0992 41.7295 35.7064 42.052C33.3789 42.3644 30.4083 42.3644 26.6557 42.3644H20.302C16.5494 42.3644 13.5768 42.3644 11.2513 42.052C8.85847 41.7295 6.92092 41.0516 5.39172 39.5245C3.86455 37.9953 3.18672 36.0577 2.86413 33.6649C2.55176 31.3374 2.55176 28.3668 2.55176 24.6142V24.3855C2.55176 20.6329 2.55176 17.6603 2.86413 15.3348C3.18672 12.942 3.86455 11.0044 5.39172 9.47521C6.92092 7.94805 8.85847 7.27021 11.2513 6.94763C13.5788 6.63525 16.5494 6.63525 20.302 6.63525ZM41.176 32.1561H37.2193C32.8399 32.1561 29.0914 28.8323 29.0914 24.4998C29.0914 20.1674 32.8399 16.8436 37.2172 16.8436H41.174C40.9412 14.1057 40.4165 12.6582 39.3977 11.6414C38.5341 10.7778 37.3499 10.2592 35.296 9.98359C33.1992 9.70184 30.4328 9.69775 26.5393 9.69775H20.4143C16.5208 9.69775 13.7564 9.70184 11.6556 9.98359C9.60367 10.2592 8.41951 10.7778 7.55588 11.6414C6.69226 12.505 6.17367 13.6892 5.89805 15.7431C5.6163 17.842 5.61222 20.6064 5.61222 24.4998C5.61222 28.3933 5.6163 31.1598 5.89805 33.2586C6.17367 35.3105 6.69226 36.4946 7.55588 37.3583C8.41951 38.2219 9.60367 38.7405 11.6576 39.0161C13.7564 39.2978 16.5208 39.3019 20.4143 39.3019H26.5393C30.4328 39.3019 33.1992 39.2978 35.298 39.0161C37.3499 38.7405 38.5341 38.2219 39.3977 37.3583C40.4165 36.3415 40.9433 34.896 41.176 32.1561ZM10.7184 16.3332C10.7184 15.9271 10.8798 15.5376 11.1669 15.2504C11.4541 14.9632 11.8436 14.8019 12.2497 14.8019H20.4163C20.8225 14.8019 21.2119 14.9632 21.4991 15.2504C21.7863 15.5376 21.9476 15.9271 21.9476 16.3332C21.9476 16.7393 21.7863 17.1288 21.4991 17.4159C21.2119 17.7031 20.8225 17.8644 20.4163 17.8644H12.2497C11.8436 17.8644 11.4541 17.7031 11.1669 17.4159C10.8798 17.1288 10.7184 16.7393 10.7184 16.3332ZM42.7195 19.9061H37.2193C34.3119 19.9061 32.1539 22.0682 32.1539 24.4998C32.1539 26.9315 34.3119 29.0936 37.2172 29.0936H42.7665C43.1871 29.067 43.3688 28.7833 43.3831 28.6118V20.3879C43.3688 20.2164 43.1871 19.9326 42.7665 19.9081L42.7195 19.9061Z" fill="#699BF7"/>
</svg>
