<svg width="48" height="48" viewBox="0 0 48 48" fill="none" xmlns="http://www.w3.org/2000/svg">
<path d="M25.001 40H21.001C13.483 40 9.72498 40 7.21498 38.02C6.8161 37.704 6.44537 37.354 6.10698 36.974C4.00098 34.614 4.00098 31.074 4.00098 24C4.00098 16.926 4.00098 13.388 6.10698 11.026C6.44431 10.6473 6.81364 10.2993 7.21498 9.982C9.72498 8 13.483 8 21.001 8H27.001C34.519 8 38.277 8 40.785 9.98C41.1876 10.3 41.5576 10.6487 41.895 11.026C43.679 13.026 43.953 15.872 43.995 21M37.001 40V26M30.001 33H44.001M4.00098 18H44.001" stroke="#699BF7" stroke-width="3" stroke-linecap="round" stroke-linejoin="round"/>
</svg>
