<?xml version="1.0" standalone="no"?>
<!DOCTYPE svg PUBLIC "-//W3C//DTD SVG 20010904//EN"
 "http://www.w3.org/TR/2001/REC-SVG-20010904/DTD/svg10.dtd">
<svg version="1.0" xmlns="http://www.w3.org/2000/svg"
 width="2000.000000pt" height="2000.000000pt" viewBox="0 0 2000.000000 2000.000000"
 preserveAspectRatio="xMidYMid meet">

<g transform="translate(0.000000,2000.000000) scale(0.100000,-0.100000)"
fill="#1a90fe" stroke="none">
<path d="M9625 19663 c-577 -28 -982 -76 -1510 -180 -1384 -271 -2738 -872
-3875 -1722 -403 -301 -692 -552 -1065 -925 -361 -362 -530 -551 -814 -913
-1050 -1343 -1741 -2997 -1955 -4683 -62 -490 -80 -821 -73 -1330 6 -411 14
-559 47 -895 169 -1689 798 -3332 1802 -4703 326 -444 603 -768 998 -1162 718
-719 1520 -1303 2435 -1771 1189 -608 2491 -961 3838 -1039 240 -14 849 -14
1082 0 1354 80 2623 420 3810 1020 1066 539 2009 1258 2820 2150 1110 1221
1905 2742 2265 4331 178 786 250 1469 237 2254 -7 390 -15 542 -48 875 -155
1568 -700 3084 -1580 4396 -837 1246 -1935 2273 -3234 3022 -1211 699 -2564
1123 -3975 1247 -347 30 -901 43 -1205 28z m980 -1408 c1306 -100 2529 -486
3635 -1148 2184 -1309 3652 -3547 3969 -6052 62 -489 85 -1047 61 -1485 -109
-1958 -871 -3757 -2200 -5195 -1078 -1166 -2494 -2010 -4027 -2399 -959 -244
-1968 -314 -2957 -206 -1602 176 -3130 826 -4373 1861 -1672 1393 -2727 3369
-2947 5519 -31 299 -40 496 -40 890 -1 411 6 555 44 892 272 2396 1580 4553
3590 5920 1081 735 2334 1205 3630 1362 202 25 554 53 740 60 183 7 677 -4
875 -19z"/>
<path d="M10670 16321 c-466 -86 -839 -413 -965 -847 -48 -166 -58 -250 -52
-469 4 -176 8 -212 31 -303 62 -236 163 -410 327 -568 177 -169 358 -264 601
-315 150 -31 402 -32 546 -1 510 110 881 499 978 1023 24 127 24 408 1 535
-54 297 -182 520 -395 690 -162 128 -288 191 -483 240 -146 36 -432 43 -589
15z"/>
<path d="M9995 13023 c-349 -14 -768 -90 -1262 -228 -285 -80 -805 -247 -825
-264 -3 -3 -18 -159 -32 -346 -14 -187 -28 -355 -30 -372 l-5 -33 207 0 c418
0 853 -28 990 -65 155 -40 166 -102 89 -500 -25 -126 -291 -1425 -592 -2885
-301 -1460 -558 -2716 -571 -2792 -57 -331 -68 -665 -29 -888 31 -179 100
-353 192 -491 53 -80 195 -220 280 -278 474 -318 1163 -303 2393 53 210 60
540 164 549 172 3 2 60 703 61 745 0 14 -38 17 -347 22 -445 8 -694 36 -858
97 -169 64 -197 206 -117 590 199 954 1223 5931 1232 5984 22 136 30 330 20
460 -33 429 -207 705 -557 880 -201 100 -490 152 -788 139z"/>
</g>
</svg>
