<svg width="47" height="39" viewBox="0 0 47 39" fill="none" xmlns="http://www.w3.org/2000/svg">
<path d="M44.75 19.5C44.75 11.4866 44.75 7.47887 42.2595 4.9905C39.7711 2.5 35.7634 2.5 27.75 2.5H19.25C11.2366 2.5 7.22887 2.5 4.7405 4.9905C2.25 7.47887 2.25 11.4866 2.25 19.5C2.25 27.5134 2.25 31.5211 4.7405 34.0095C7.22887 36.5 11.2366 36.5 19.25 36.5H27.75C35.7634 36.5 39.7711 36.5 42.2595 34.0095C43.6492 32.6219 44.2634 30.7625 44.5333 28M19.25 28H10.75M27.75 28H24.5625M2.25 15.25H12.875M44.75 15.25H21.375" stroke="#699BF7" stroke-width="3.1875" stroke-linecap="round"/>
</svg>
